<?xml version="1.0" standalone="no"?>
<!DOCTYPE svg PUBLIC "-//W3C//DTD SVG 20010904//EN"
 "http://www.w3.org/TR/2001/REC-SVG-20010904/DTD/svg10.dtd">
<svg version="1.0" xmlns="http://www.w3.org/2000/svg"
 width="1280.000000pt" height="1280.000000pt" viewBox="0 0 1280.000000 1280.000000"
 preserveAspectRatio="xMidYMid meet">
<metadata>
Created by potrace 1.15, written by Peter Selinger 2001-2017
</metadata>
<g transform="translate(0.000000,1280.000000) scale(0.100000,-0.100000)"
fill="#000000" stroke="none">
<path d="M6170 12155 c-146 -411 -227 -629 -232 -617 -4 9 -32 190 -63 401
-30 212 -58 387 -62 390 -3 3 -3 -12 0 -34 3 -22 15 -258 28 -525 l22 -485
-107 -297 c-58 -163 -106 -301 -106 -307 0 -57 -42 98 -210 769 -107 429 -196
776 -198 772 -2 -8 70 -504 218 -1491 l60 -405 -46 -130 c-56 -159 -59 -164
-68 -140 -7 16 -167 464 -637 1778 -49 138 -92 252 -95 255 -4 3 -4 -3 -1 -14
3 -11 141 -559 307 -1218 l301 -1198 -17 -54 c-10 -30 -20 -55 -23 -55 -3 0
-256 529 -561 1175 -305 646 -555 1173 -557 1172 -1 -2 24 -77 57 -167 32 -91
176 -493 320 -895 144 -401 313 -875 377 -1053 63 -178 113 -325 110 -328 -2
-3 -26 5 -51 18 -47 23 -48 23 -688 1093 -561 937 -693 1154 -650 1070 5 -11
204 -432 442 -935 238 -503 445 -941 461 -972 16 -32 26 -58 22 -58 -5 0 -69
29 -143 65 l-134 65 -558 752 c-307 414 -567 764 -579 778 l-20 25 20 -35 c10
-19 197 -332 415 -694 217 -363 393 -662 391 -664 -2 -3 -139 60 -304 139
l-299 144 -342 378 c-187 207 -343 377 -345 377 -3 0 87 -123 198 -272 112
-150 222 -299 245 -330 l42 -57 -62 28 c-35 16 -310 146 -612 290 -302 144
-551 260 -553 258 -1 -2 126 -273 283 -603 157 -329 288 -605 291 -613 7 -15
5 -14 -377 270 -157 116 -267 193 -245 171 22 -22 193 -178 380 -347 l340
-307 97 -201 c54 -111 120 -249 147 -305 34 -69 45 -102 35 -98 -9 3 -314 185
-677 403 -364 218 -673 403 -687 411 -25 14 -25 14 -4 -4 12 -11 363 -272 780
-581 l759 -562 63 -134 c34 -73 62 -136 62 -139 0 -3 -199 89 -442 204 -1384
656 -1546 732 -1533 720 6 -5 492 -297 1080 -649 l1070 -640 23 -48 c13 -26
21 -50 18 -53 -3 -3 -45 10 -93 27 -81 30 -589 211 -1863 667 -266 95 -485
172 -487 171 -2 -2 1797 -855 2219 -1052 70 -33 128 -63 128 -66 0 -3 -24 -13
-54 -22 l-54 -17 -1213 304 c-667 168 -1215 304 -1216 302 -2 -2 60 -26 139
-54 388 -137 1882 -673 1895 -680 10 -6 -29 -24 -129 -60 l-143 -52 -235 35
c-129 20 -554 83 -944 141 -389 58 -710 104 -711 102 -2 -2 345 -91 771 -198
425 -107 771 -197 766 -201 -4 -4 -142 -55 -307 -114 l-300 -107 -160 6 c-261
11 -745 35 -820 42 -153 13 -41 -8 326 -61 211 -31 392 -59 401 -63 16 -6
-250 -104 -1074 -394 -98 -35 -178 -65 -178 -68 0 -3 136 -53 303 -112 911
-322 968 -343 945 -350 -13 -3 -183 -30 -378 -58 -195 -28 -368 -55 -385 -60
l-30 -9 30 4 c17 2 253 14 525 26 l495 22 298 -107 c164 -58 302 -106 307
-106 56 0 -104 -44 -770 -210 -429 -107 -776 -196 -772 -198 5 -1 204 27 443
62 239 36 664 99 945 141 l512 76 138 -51 c76 -27 141 -50 144 -50 17 -1 -68
-34 -445 -168 -231 -83 -661 -237 -955 -342 -294 -106 -561 -201 -593 -212
-32 -11 -57 -22 -55 -23 2 -2 548 134 1213 301 l1210 304 58 -16 c31 -10 57
-20 57 -23 -1 -3 -56 -32 -123 -63 -111 -52 -473 -223 -1784 -843 -243 -115
-441 -211 -439 -212 2 -2 16 1 32 8 16 6 268 96 559 201 1464 524 1764 632
1812 648 l52 19 -27 -55 -27 -55 -1070 -641 c-937 -561 -1153 -692 -1070 -650
11 5 265 126 565 267 300 142 738 349 973 461 344 162 427 198 421 181 -3 -11
-34 -76 -68 -143 l-61 -123 -765 -567 c-421 -311 -769 -571 -775 -576 -12 -13
-77 -52 719 426 363 217 662 393 664 391 3 -2 -60 -138 -138 -302 l-142 -298
-360 -325 c-197 -179 -369 -336 -381 -349 -12 -13 102 68 253 181 151 112 301
223 333 247 l58 42 -15 -33 c-8 -18 -138 -294 -290 -612 -152 -319 -274 -581
-273 -583 3 -2 650 303 1076 508 79 38 145 68 146 67 2 -2 -107 -150 -241
-330 -134 -181 -242 -328 -239 -328 2 0 157 170 345 378 l342 377 305 147
c182 88 302 141 299 132 -3 -9 -185 -314 -403 -677 -218 -364 -403 -673 -411
-687 -14 -25 -14 -25 4 -4 11 12 272 363 581 780 l562 759 133 63 c73 34 136
62 141 62 4 0 -4 -22 -17 -48 -13 -27 -223 -469 -466 -983 -243 -514 -445
-938 -448 -944 -3 -5 -1 -6 3 -2 5 4 299 492 654 1084 l646 1077 52 22 51 22
-18 -51 c-10 -29 -61 -171 -113 -317 -52 -146 -205 -573 -340 -950 -135 -377
-282 -786 -326 -910 -44 -123 -79 -225 -78 -226 1 -2 252 526 557 1171 305
646 558 1175 561 1175 3 0 13 -25 23 -54 l17 -55 -301 -1198 c-166 -659 -304
-1207 -307 -1218 -3 -11 -3 -17 1 -14 3 3 68 180 145 395 76 214 239 668 360
1008 122 340 225 625 230 634 7 12 9 12 13 1 3 -8 26 -73 52 -145 l46 -130
-40 -270 c-135 -901 -240 -1618 -238 -1625 2 -4 91 343 198 772 168 670 210
825 210 768 0 -6 48 -144 106 -307 l107 -297 -22 -485 c-13 -267 -25 -503 -28
-525 -3 -22 -3 -37 0 -34 4 3 32 178 62 390 31 211 59 392 63 401 5 12 86
-206 232 -617 124 -349 227 -635 230 -635 3 0 79 210 170 467 279 788 287 811
294 783 3 -14 30 -196 61 -404 31 -209 58 -382 62 -385 3 -4 3 12 0 34 -3 22
-15 258 -28 525 l-21 485 102 285 c56 157 105 295 107 308 3 12 8 22 12 22 3
0 94 -351 201 -780 107 -428 196 -776 198 -771 2 7 -71 506 -218 1490 l-60
405 46 130 c56 159 59 164 68 140 7 -18 250 -694 587 -1638 77 -215 142 -392
145 -395 4 -3 4 3 1 14 -3 11 -141 559 -307 1218 l-301 1198 17 54 c10 30 20
55 23 55 3 0 135 -274 293 -608 606 -1285 822 -1741 825 -1739 1 2 -34 104
-78 227 -96 266 -479 1339 -619 1730 -54 151 -117 325 -139 387 l-40 111 52
-22 52 -22 645 -1077 c567 -945 694 -1153 653 -1072 -6 11 -205 432 -443 935
-238 503 -445 941 -461 972 -16 32 -26 58 -22 58 5 0 68 -28 141 -62 l133 -63
562 -759 c309 -417 570 -768 581 -780 18 -21 18 -21 4 4 -8 14 -193 323 -411
687 -218 363 -400 668 -403 677 -3 9 117 -44 299 -132 l305 -147 342 -377
c188 -208 343 -378 345 -378 3 0 -105 147 -239 328 -134 180 -243 328 -241
330 1 1 67 -29 146 -67 425 -205 1073 -510 1076 -508 1 2 -126 273 -283 603
-157 329 -288 605 -291 613 -4 8 20 -6 53 -30 32 -24 183 -135 334 -247 151
-113 265 -194 253 -181 -12 13 -184 170 -382 349 l-359 325 -143 298 c-78 164
-140 300 -137 302 2 2 301 -174 664 -391 797 -479 732 -440 714 -422 -8 8
-359 270 -780 581 l-765 567 -62 133 c-35 73 -63 136 -63 139 0 3 192 -85 428
-197 235 -111 672 -318 972 -460 300 -141 554 -262 565 -267 82 -42 -131 88
-1070 650 l-1070 641 -27 55 -27 55 52 -19 c48 -16 348 -124 1812 -648 292
-105 543 -195 559 -201 16 -7 30 -10 32 -8 2 1 -196 97 -439 212 -1311 620
-1673 791 -1784 843 -67 31 -122 60 -123 63 0 3 26 13 58 23 l57 16 1210 -304
c666 -167 1211 -303 1213 -301 2 1 -23 12 -55 23 -32 11 -299 106 -593 212
-294 105 -724 259 -955 342 -377 134 -462 167 -445 168 3 0 68 23 144 50 l139
51 236 -35 c1225 -183 1656 -246 1663 -244 5 2 -343 91 -772 198 -666 166
-826 210 -770 210 5 0 143 48 307 106 l298 107 495 -22 c272 -12 509 -24 525
-26 l30 -4 -30 9 c-16 5 -190 32 -385 60 -195 28 -365 54 -378 58 -22 7 167
77 1010 373 131 46 238 86 238 89 0 3 -80 33 -178 68 -824 290 -1090 388
-1074 394 9 4 190 32 401 63 367 53 479 74 326 61 -75 -7 -559 -31 -820 -42
l-160 -6 -300 107 c-165 59 -303 110 -307 114 -5 4 341 94 767 201 426 107
771 196 767 198 -4 1 -190 -25 -412 -58 -223 -33 -646 -96 -941 -140 l-536
-79 -139 49 c-76 28 -141 50 -144 50 -3 0 2 5 12 10 13 8 1455 527 1896 682
79 28 141 52 139 54 -1 2 -549 -134 -1216 -302 l-1213 -304 -54 17 c-30 9 -54
19 -54 22 0 3 58 33 128 66 422 197 2221 1050 2219 1052 -3 2 -185 -63 -1705
-607 -403 -144 -735 -260 -738 -258 -2 3 5 26 16 52 l21 46 1072 642 c590 352
1077 645 1082 650 6 5 -33 -11 -85 -35 -208 -97 -1729 -817 -1827 -865 -36
-17 -63 -25 -62 -19 0 7 31 72 67 145 l67 132 750 555 c413 306 761 565 775
576 l25 21 -25 -15 c-14 -7 -323 -192 -687 -410 -363 -218 -668 -400 -677
-403 -10 -4 1 29 35 98 27 56 93 194 147 305 l97 202 340 306 c503 454 510
454 -114 -8 -74 -54 -131 -93 -128 -86 3 8 134 284 291 613 157 330 284 601
282 603 -1 2 -250 -114 -552 -258 -302 -144 -577 -274 -612 -290 l-62 -28 42
57 c23 31 134 181 246 332 113 151 194 265 181 253 -13 -12 -170 -184 -349
-381 l-325 -360 -298 -142 c-164 -78 -300 -141 -302 -138 -2 2 174 301 391
664 479 797 440 732 422 714 -8 -8 -270 -359 -582 -780 l-567 -765 -122 -57
c-67 -32 -130 -60 -139 -63 -11 -5 53 141 186 422 112 235 319 673 461 973
141 300 262 554 267 565 43 84 -89 -133 -650 -1070 -640 -1069 -641 -1071
-688 -1093 -25 -13 -49 -21 -51 -18 -3 3 46 150 110 328 402 1124 737 2057
746 2082 7 16 10 30 8 32 -1 2 -252 -525 -557 -1171 -305 -646 -558 -1175
-561 -1175 -3 0 -13 25 -23 55 l-17 54 301 1198 c166 659 304 1207 307 1218 3
11 3 17 -1 14 -3 -3 -46 -117 -95 -255 -49 -137 -211 -591 -361 -1009 -149
-417 -275 -766 -279 -773 -7 -12 -9 -12 -13 -1 -3 8 -26 73 -52 145 l-46 130
60 405 c161 1077 220 1483 218 1491 -2 4 -91 -343 -198 -772 -107 -429 -198
-780 -201 -780 -4 0 -9 10 -12 23 -2 12 -51 150 -107 307 l-102 285 21 485
c13 267 25 503 28 525 3 22 3 38 0 34 -4 -3 -31 -174 -62 -380 -30 -205 -58
-387 -61 -404 -7 -33 12 -83 -273 718 -100 279 -181 512 -181 517 0 43 -43
-70 -240 -625z"/>
</g>
</svg>
